<svg width="2384" height="865" viewBox="0 0 2384 865" fill="none" xmlns="http://www.w3.org/2000/svg">
<path d="M56.5148 -283.829C56.5148 -283.829 521.56 -633.084 1305.49 -220.242C2089.42 192.6 2554.46 -156.655 2554.46 -156.655" stroke="#9DECF9" stroke-width="5"/>
<path d="M36.7013 -236.714C36.7013 -236.714 501.746 -585.969 1285.68 -173.127C2069.61 239.715 2534.65 -109.54 2534.65 -109.54" stroke="#9DECF9" stroke-width="5"/>
<path d="M16.8881 -189.599C16.8881 -189.599 481.933 -538.855 1265.86 -126.012C2049.79 286.83 2514.84 -62.4255 2514.84 -62.4255" stroke="#9DECF9" stroke-width="5"/>
<path d="M-2.92518 -142.484C-2.92518 -142.484 462.12 -491.739 1246.05 -78.8969C2029.98 333.945 2495.02 -15.31 2495.02 -15.31" stroke="#9DECF9" stroke-width="5"/>
<path d="M-22.7387 -95.3692C-22.7387 -95.3692 442.306 -444.624 1226.24 -31.7823C2010.17 381.06 2475.21 31.8046 2475.21 31.8046" stroke="#9DECF9" stroke-width="5"/>
<path d="M-42.5519 -48.2539C-42.5519 -48.2539 422.493 -397.509 1206.42 15.333C1990.35 428.175 2455.4 78.92 2455.4 78.92" stroke="#9DECF9" stroke-width="5"/>
<path d="M-62.3654 -1.13898C-62.3654 -1.13898 402.679 -350.394 1186.61 62.448C1970.54 475.29 2435.58 126.035 2435.58 126.035" stroke="#9DECF9" stroke-width="5"/>
<path d="M-82.1787 45.976C-82.1787 45.976 382.866 -303.279 1166.8 109.563C1950.73 522.405 2415.77 173.15 2415.77 173.15" stroke="#9DECF9" stroke-width="5"/>
<path d="M-101.992 93.0908C-101.992 93.0908 363.053 -256.164 1146.98 156.678C1930.91 569.52 2395.96 220.265 2395.96 220.265" stroke="#9DECF9" stroke-width="5"/>
</svg>
