<svg width="83" height="19" viewBox="0 0 83 19" fill="none" xmlns="http://www.w3.org/2000/svg">
<path d="M0.536 1.2H7.736C9.08 1.2 10.264 1.432 11.288 1.896C12.328 2.36 13.136 3.032 13.712 3.912C14.288 4.792 14.576 5.848 14.576 7.08C14.576 8.312 14.288 9.368 13.712 10.248C13.136 11.128 12.328 11.8 11.288 12.264C10.264 12.728 9.08 12.96 7.736 12.96H4.904V18H0.536V1.2ZM7.376 9.312C8.304 9.312 9.008 9.136 9.488 8.784C9.968 8.432 10.208 7.864 10.208 7.08C10.208 6.296 9.968 5.728 9.488 5.376C9.008 5.024 8.304 4.848 7.376 4.848H4.904V9.312H7.376ZM17.4166 1.2H29.1046V4.848H21.7846V7.776H28.4566V11.424H21.7846V14.352H29.3686V18H17.4166V1.2ZM32.3988 1.2H37.0548L42.4308 9.936L42.8628 11.976H43.1028V1.2H47.4708V18H42.8148L37.4388 9.264L37.0068 7.224H36.7668V18H32.3988V1.2ZM59.0834 18.24C57.4834 18.24 56.0114 17.888 54.6674 17.184C53.3394 16.464 52.2754 15.448 51.4754 14.136C50.6914 12.824 50.2994 11.312 50.2994 9.6C50.2994 7.888 50.6914 6.376 51.4754 5.064C52.2754 3.752 53.3394 2.744 54.6674 2.04C56.0114 1.32 57.4834 0.959999 59.0834 0.959999C60.4754 0.959999 61.7234 1.192 62.8274 1.656C63.9314 2.104 64.8274 2.736 65.5154 3.552C66.2194 4.368 66.6914 5.296 66.9314 6.336L66.6194 6.864L62.8274 7.512C62.6034 6.664 62.1474 6 61.4594 5.52C60.7874 5.04 59.9554 4.8 58.9634 4.8C57.6354 4.8 56.5874 5.24 55.8194 6.12C55.0514 7 54.6674 8.16 54.6674 9.6C54.6674 11.04 55.0594 12.2 55.8434 13.08C56.6434 13.96 57.7314 14.4 59.1074 14.4C60.0194 14.4 60.7954 14.168 61.4354 13.704C62.0914 13.224 62.5554 12.552 62.8274 11.688L66.5954 12.336L66.9074 12.864C66.2834 14.656 65.2914 16 63.9314 16.896C62.5874 17.792 60.9714 18.24 59.0834 18.24ZM73.0017 12.336L67.7457 1.2H72.3777L74.8497 6.528L75.0657 8.736H75.3057L75.5217 6.528L77.9937 1.2H82.6257L77.3697 12.336V18H73.0017V12.336Z" fill="black"/>
</svg>
