<svg width="114" height="24" viewBox="0 0 114 24" fill="none" xmlns="http://www.w3.org/2000/svg">
<path d="M5.168 14.68H10.768C15.696 14.68 18.288 11.256 18.288 7.608C18.288 3.832 15.76 0.600001 10.768 0.600001H0.0479965V23H5.168V14.68ZM5.168 10.04V5.24H10.448C12.112 5.24 13.168 6.104 13.168 7.64C13.168 9.176 12.112 10.04 10.448 10.04H5.168Z" fill="black"/>
<path d="M21.868 0.600001V23H39.5V18.36H26.988V13.88H38.22V9.24H26.988V5.24H39.18V0.600001H21.868Z" fill="black"/>
<path d="M48.2142 4.024L56.4062 23H65.1742V0.600001H60.0542V19.576L51.8622 0.600001H43.0942V23H48.2142V4.024Z" fill="black"/>
<path d="M73.8897 11.8C73.8897 7.64 76.8337 4.92 80.4177 4.92C83.5218 4.92 85.7937 6.744 86.4337 9.848L91.1377 7.736C90.1777 3.544 86.4337 0.280001 80.5137 0.280001C73.9538 0.152001 68.6418 5.368 68.7698 11.8C68.7698 18.392 73.3777 23.32 80.5137 23.32C86.6577 23.32 90.7537 19.896 92.0658 14.392L87.3617 12.504C86.6257 16.248 84.3537 18.68 80.5457 18.68C76.9617 18.68 73.8897 16.024 73.8897 11.8Z" fill="black"/>
<path d="M98.0512 0.600001H92.1312L100.291 14.36V23H105.411V14.36L113.571 0.600001H107.971L102.851 9.368L98.0512 0.600001Z" fill="black"/>
</svg>
